# xmcd
#
# Track frame offsets:
#	150
#	22072
#	41117
#	58230
#
# Disc length: 1124 seconds
#
# Revision: 1
# Processed by: cddbd v1.5.1PL0 Copyright (c) Steve Scherf et al.
# Submitted via: CDex 1.50Beta5
#
DISCID=36046204
DTITLE=沢田知可子 - Please Santa Claus
DYEAR=1994
DGENRE=
TTITLE0=Please Santa Claus
TTITLE1=Snow dance
TTITLE2=I love me
TTITLE3=Why
EXTD=
EXTT0=
EXTT1=
EXTT2=
EXTT3=
PLAYORDER=
